<?xml version="1.0" encoding="iso-8859-1"?>
<!-- Generator: Adobe Illustrator 18.0.0, SVG Export Plug-In . SVG Version: 6.00 Build 0)  -->
<!DOCTYPE svg PUBLIC "-//W3C//DTD SVG 1.1//EN" "http://www.w3.org/Graphics/SVG/1.1/DTD/svg11.dtd">
<svg version="1.1" id="Capa_1" xmlns="http://www.w3.org/2000/svg" xmlns:xlink="http://www.w3.org/1999/xlink" x="0px" y="0px"
	 viewBox="0 0 398.538 398.538" style="enable-background:new 0 0 398.538 398.538;" xml:space="preserve">
<path d="M387.125,146.29c0-38.733-15.084-75.148-42.473-102.536l-32.106-32.106c-10.41-10.411-25.626-14.204-39.705-9.906
	c-9.102,2.779-15.909,9.951-18.213,19.184c-2.304,9.233,0.338,18.763,7.067,25.491l10.09,10.091
	c-35.36-12.843-76.172-6.479-106.123,19.074c-43.142-3.98-85.286,11.188-115.943,41.847
	c-51.076,51.074-51.076,134.187-0.001,185.271c10.857,10.857,23.435,19.344,37.424,25.268v6.02c0,18.146,9.952,34.715,25.972,43.239
	c3.493,1.858,7.28,2.784,11.059,2.784c4.179,0,8.348-1.132,12.1-3.386c7.144-4.291,11.409-11.828,11.409-20.162v-19.75
	c17.565,37.692,55.23,61.826,97.067,61.826c65.291,0,118.409-53.118,118.409-118.41c0-15.006-2.509-29.685-7.459-43.678
	C376.063,210.899,387.125,179.447,387.125,146.29z M235.087,60.06c24.856,0,49.714,9.461,68.637,28.384
	c16.405,16.406,25.44,38.218,25.44,61.419s-9.035,45.014-25.44,61.42c-30.285,30.283-79.563,30.283-109.848,0
	c-12.905-12.906-20.123-30.063-20.323-48.312c-0.2-18.219,6.607-35.5,19.17-48.662c23.338-24.455,62.471-25.655,87.234-2.676
	c10.052,9.327,15.489,20.966,15.727,33.657c0.274,14.696-6.288,29.504-18.479,41.694c-11.041,11.041-23.321,12.65-31.682,12.055
	c-10.655-0.758-21.039-5.465-28.488-12.914c-15.157-15.158-11.088-37.345,1.604-50.036c10.036-10.036,26.216-15.307,41.524,0.002
	c9.359,9.359,6.735,23.168-1.207,31.111c-3.875,3.876-15.578,4.518-22.133-2.037c-1.951-1.953-5.119-1.953-7.07,0
	c-1.953,1.952-1.953,5.118,0,7.07c9.666,9.667,27.635,10.678,36.273,2.037c13.026-13.025,13.557-32.902,1.208-45.252
	c-19.228-19.228-41.814-13.856-55.666-0.002c-20.588,20.587-16.983,48.798-1.604,64.177c9.126,9.127,21.829,14.893,34.851,15.818
	c14.747,1.053,28.767-4.263,39.461-14.959c14.13-14.129,21.732-31.514,21.406-48.951c-0.289-15.474-6.832-29.582-18.922-40.801
	c-28.747-26.677-74.179-25.287-101.271,3.102c-14.374,15.061-22.164,34.833-21.936,55.677c0.229,20.877,8.487,40.506,23.253,55.271
	c34.184,34.184,89.805,34.184,123.988,0c18.295-18.294,28.37-42.618,28.37-68.49s-10.075-50.195-28.37-68.489l-42.028-42.028
	c-4.223-4.224-5.881-10.204-4.436-16c1.446-5.795,5.72-10.296,11.433-12.04c10.536-3.221,21.922-0.378,29.713,7.412l32.106,32.106
	c25.499,25.5,39.543,59.403,39.543,95.466c0,36.062-14.044,69.965-39.543,95.465c-47.182,47.18-123.949,47.18-171.131,0
	c-42.268-42.268-42.268-111.043,0-153.311C185.375,69.521,210.231,60.06,235.087,60.06z M312.215,282.279
	c0,18.253-7.027,35.49-19.788,48.536c-12.74,13.025-29.771,20.432-47.959,20.852c-21.629,0.532-42.27-10.718-53.918-28.949
	c6.192-3.415,12.064-7.381,17.559-11.853c6.772,10.669,19.014,17.079,33.433,17.079c29.113,0,46.51-22.495,46.51-44.243
	c0-0.518-0.03-1.05-0.046-1.577c8.095-2.298,16.008-5.389,23.62-9.271C312.002,275.972,312.215,279.122,312.215,282.279z
	 M252.017,287.135c8.717,0,17.433-0.87,26.01-2.595c-0.505,23.025-21.509,33.403-36.486,33.403c-11.688,0-21.091-5.115-25.82-13.825
	c0.491-0.475,0.982-0.948,1.454-1.42c5.265-5.264,9.961-11.049,13.995-17.227C238.071,286.575,245.044,287.135,252.017,287.135z
	 M125.116,174.291c0.481,6.228,1.449,12.424,2.909,18.527c-1.32,0.99-2.578,2.063-3.745,3.23
	c-3.949,3.949-6.118,10.521-5.802,17.578c0.324,7.229,3.181,14.045,7.838,18.701c0.977,0.976,2.256,1.464,3.535,1.464
	s2.56-0.488,3.536-1.465c1.952-1.952,1.952-5.118-0.001-7.071c-2.912-2.911-4.704-7.313-4.918-12.076
	c-0.179-3.978,0.851-7.731,2.625-9.754c5.438,15.977,14.38,31.012,26.825,43.9c-12.891,9.419-32.077,11.14-45.499-2.283
	c-7.449-7.45-12.156-17.834-12.914-28.491c-0.594-8.358,1.017-20.641,12.063-31.682
	C115.768,180.661,120.309,177.133,125.116,174.291z M124.78,163.094c-7.322,3.612-14.136,8.546-20.285,14.705
	c-10.697,10.693-16.012,24.707-14.964,39.46c0.925,13.022,6.69,25.727,15.817,34.853c7.539,7.54,18.184,12.146,29.203,12.64
	c0.646,0.029,1.313,0.045,2.003,0.045c7.829,0,18.362-2.073,28.7-10.459c6.184,5.474,12.763,10.265,19.642,14.368
	c-0.22,0.217-0.436,0.436-0.659,0.649c-13.159,12.562-30.421,19.401-48.659,19.169c-18.248-0.201-35.405-7.42-48.312-20.326
	c-30.28-30.289-30.28-79.564,0.001-109.846c11.506-11.514,25.659-19.393,41.286-23.08
	C126.195,144.389,124.937,153.734,124.78,163.094z M56.79,124.498c26.448-26.448,62.083-40.526,99.125-39.497
	c-10.801,11.745-18.792,25.158-23.976,39.375c-19.689,3.427-37.529,12.681-51.745,26.907c-34.179,34.178-34.179,89.797,0,123.985
	c14.766,14.767,34.396,23.025,55.272,23.255c0.299,0.003,0.597,0.005,0.895,0.005c20.514,0,39.938-7.771,54.787-21.946
	c0.991-0.95,1.951-1.922,2.875-2.91c8.524,4.199,17.414,7.414,26.498,9.649c-3.116,4.361-6.597,8.487-10.417,12.308
	c-1.189,1.188-2.437,2.379-3.805,3.629c-7.483,6.802-15.867,12.517-24.913,16.983c-9.924,4.889-20.52,8.212-31.516,9.88
	c-2.531,0.396-5.083,0.697-7.597,0.897c-16.355,1.334-33.064-1.109-48.315-7.07c-13.975-5.448-26.48-13.63-37.168-24.319
	C9.613,248.443,9.613,171.674,56.79,124.498z M131.123,368.051c-4.105,2.468-9.083,2.596-13.312,0.346
	c-12.749-6.784-20.669-19.97-20.669-34.411v-2.307c11.72,3.76,24.064,5.694,36.393,5.694c1.383,0,2.765-0.035,4.146-0.084v19.172
	C137.682,361.253,135.23,365.585,131.123,368.051z M353.158,280.128c0,59.777-48.632,108.41-108.409,108.41
	c-37.06,0-70.497-20.894-86.868-53.725c8.146-1.704,16.073-4.24,23.671-7.613c13.113,21.202,36.647,34.484,61.51,34.483
	c0.545,0,1.093-0.006,1.639-0.019c20.811-0.481,40.3-8.954,54.876-23.857c14.599-14.926,22.639-34.646,22.639-55.528
	c0-4.933-0.42-9.858-1.235-14.691c8.42-5.213,16.374-11.464,23.673-18.763c1.163-1.163,2.296-2.348,3.414-3.543
	C351.446,256.53,353.158,268.216,353.158,280.128z"/>
<g>
</g>
<g>
</g>
<g>
</g>
<g>
</g>
<g>
</g>
<g>
</g>
<g>
</g>
<g>
</g>
<g>
</g>
<g>
</g>
<g>
</g>
<g>
</g>
<g>
</g>
<g>
</g>
<g>
</g>
</svg>
